<svg width="795" height="616" viewBox="0 0 795 616" fill="none" xmlns="http://www.w3.org/2000/svg">
<g id="girl-on-bike" clip-path="url(#clip0_1_2)">
<path id="Ellipse 1" d="M783.5 325.369C841.998 539.976 682.076 670.145 432 594C260.502 541.781 -50.322 797 76.0907 325.369C129.6 125.733 180.136 0 390.267 0C600.398 0 729.961 128.958 783.5 325.369Z" fill="#D8D8D8"/>
<g id="wheel-front">
<g id="spaken">
<g id="Line 7" filter="url(#filter0_d_1_2)">
<path d="M676.223 426.922L528.555 557.125" stroke="#3F3D56"/>
</g>
<g id="Line 8" filter="url(#filter1_d_1_2)">
<path d="M701.867 488.529L505.262 487.552" stroke="#3F3D56"/>
</g>
<g id="Line 10" filter="url(#filter2_d_1_2)">
<line y1="-0.5" x2="197.165" y2="-0.5" transform="matrix(-0.756303 -0.654221 0.644149 -0.7649 681.922 553.024)" stroke="#3F3D56"/>
</g>
<g id="Line 11" filter="url(#filter3_d_1_2)">
<line x1="606.389" y1="595.378" x2="606.389" y2="393.231" stroke="#3F3D56"/>
</g>
</g>
<path id="Vector" d="M603.744 603.625C582.333 603.625 561.402 597.19 543.6 585.134C525.797 573.078 511.922 555.942 503.728 535.894C495.534 515.846 493.39 493.785 497.567 472.502C501.745 451.219 512.055 431.669 527.195 416.325C542.335 400.98 561.624 390.531 582.624 386.297C603.624 382.064 625.39 384.236 645.172 392.541C664.953 400.845 681.86 414.908 693.756 432.951C705.651 450.994 712 472.207 712 493.907C711.968 522.996 700.552 550.884 680.257 571.453C659.962 592.022 632.445 603.592 603.744 603.625ZM603.744 394.348C584.315 394.348 565.323 400.187 549.169 411.127C533.014 422.066 520.424 437.615 512.989 455.807C505.554 473.999 503.608 494.017 507.399 513.33C511.189 532.642 520.545 550.382 534.283 564.306C548.021 578.229 565.524 587.711 584.579 591.553C603.635 595.394 623.386 593.423 641.336 585.887C659.285 578.352 674.627 565.591 685.421 549.219C696.215 532.846 701.976 513.598 701.976 493.907C701.947 467.511 691.588 442.206 673.172 423.541C654.756 404.877 629.788 394.378 603.744 394.348V394.348Z" fill="#3F3D56"/>
<path id="Vector_2" d="M606.889 500.08C613.708 500.08 619.236 494.693 619.236 488.048C619.236 481.402 613.708 476.015 606.889 476.015C600.07 476.015 594.541 481.402 594.541 488.048C594.541 494.693 600.07 500.08 606.889 500.08Z" fill="#3F3D56"/>
</g>
<g id="wheel-back">
<g id="spaken_2">
<g id="Line 7_2" filter="url(#filter4_d_1_2)">
<path d="M229.823 438.473L88.6158 563.014" stroke="#3F3D56"/>
</g>
<g id="Line 8_2" filter="url(#filter5_d_1_2)">
<path d="M252.618 499.599L63.6108 499.599" stroke="#3F3D56"/>
</g>
<g id="Line 10_2" filter="url(#filter6_d_1_2)">
<line y1="-0.5" x2="189.706" y2="-0.5" transform="matrix(-0.755999 -0.654573 0.644502 -0.764602 231.723 560.724)" stroke="#3F3D56"/>
</g>
<g id="Line 11_2" filter="url(#filter7_d_1_2)">
<line x1="160.939" y1="595.378" x2="160.939" y2="405.744" stroke="#3F3D56"/>
</g>
</g>
<path id="Vector_3" d="M158.826 605.12C138.538 605.12 118.706 599.023 101.837 587.6C84.9681 576.176 71.8206 559.939 64.0568 540.943C56.293 521.946 54.2616 501.043 58.2196 480.877C62.1775 460.71 71.947 442.186 86.2927 427.646C100.638 413.107 118.916 403.206 138.814 399.194C158.712 395.183 179.337 397.242 198.08 405.11C216.824 412.979 232.844 426.304 244.115 443.4C255.386 460.497 261.402 480.597 261.402 501.158C261.372 528.721 250.555 555.146 231.324 574.636C212.094 594.126 186.021 605.089 158.826 605.12V605.12ZM158.826 406.823C140.416 406.823 122.42 412.356 107.114 422.721C91.8068 433.087 79.8766 447.82 72.8317 465.058C65.7867 482.295 63.9435 501.263 67.5349 519.562C71.1264 537.862 79.9913 554.671 93.0087 567.864C106.026 581.057 122.611 590.042 140.667 593.682C158.722 597.321 177.437 595.453 194.445 588.313C211.453 581.173 225.99 569.082 236.218 553.569C246.446 538.055 251.905 519.816 251.905 501.158C251.877 476.148 242.061 452.17 224.612 434.484C207.162 416.799 183.503 406.851 158.826 406.823V406.823Z" fill="#3F3D56"/>
<path id="Vector_4" d="M161.439 510.669C168.258 510.669 173.786 505.282 173.786 498.636C173.786 491.991 168.258 486.604 161.439 486.604C154.62 486.604 149.092 491.991 149.092 498.636C149.092 505.282 154.62 510.669 161.439 510.669Z" fill="#3F3D56"/>
</g>
<g id="girl-bike">
<g id="trapper-left">
<path id="Vector_5" d="M310.066 514.601L281.31 489.437C279.31 487.685 278.077 485.199 277.885 482.526C277.692 479.853 278.554 477.212 280.283 475.184C282.011 473.155 284.463 471.905 287.1 471.709C289.737 471.513 292.343 472.386 294.346 474.136L323.101 499.3C324.093 500.168 324.906 501.224 325.495 502.411C326.084 503.597 326.436 504.888 326.532 506.213C326.628 507.537 326.466 508.867 326.055 510.127C325.643 511.388 324.991 512.554 324.135 513.559C323.279 514.564 322.236 515.388 321.065 515.984C319.895 516.58 318.62 516.937 317.313 517.034C316.007 517.13 314.694 516.965 313.451 516.548C312.207 516.131 311.057 515.469 310.066 514.601V514.601Z" fill="#3F3D56"/>
</g>
<g id="trapper-right">
<path id="Vector_6" d="M473.711 471.124L439.431 487.723C437.045 488.878 434.303 489.026 431.809 488.133C429.315 487.239 427.274 485.379 426.133 482.96C424.993 480.541 424.848 477.762 425.729 475.235C426.61 472.707 428.446 470.638 430.833 469.483L465.113 452.884C467.499 451.728 470.241 451.581 472.735 452.474C475.229 453.367 477.27 455.228 478.411 457.647C479.551 460.066 479.696 462.844 478.815 465.372C477.934 467.899 476.098 469.968 473.711 471.124V471.124Z" fill="#3F3D56"/>
</g>
<g id="bike frame">
<path id="Vector_7" d="M227.083 427.884L218.426 418.529L275.944 361.62L499.504 293.119L557.5 401.787H548.843L494.934 304.8L281.189 370.293L227.083 427.884Z" fill="#3F3D56"/>
<path id="Vector_8" d="M349.964 493.995H256.626V503.621H349.964V493.995Z" fill="#3F3D56"/>
<path id="Vector_9" d="M286.832 313.656H277.334V363.984H286.832V313.656Z" fill="#3F3D56"/>
<path id="Vector_10" d="M468.71 195.896L459.672 198.854L490.657 296.098L499.695 293.139L468.71 195.896Z" fill="#3F3D56"/>
<path id="Vector_11" d="M285.883 357.652L277.687 362.517L355.57 497.282L363.766 492.417L285.883 357.652Z" fill="#3F3D56"/>
<path id="Vector_12" d="M542.197 377.28L375.042 492.804L380.393 500.757L547.548 385.233L542.197 377.28Z" fill="#3F3D56"/>
<path id="Vector_13" d="M364.929 517.093C374.661 517.093 382.551 509.097 382.551 499.233C382.551 489.369 374.661 481.373 364.929 481.373C355.197 481.373 347.307 489.369 347.307 499.233C347.307 509.097 355.197 517.093 364.929 517.093Z" fill="#3F3D56"/>
<path id="Vector_14" d="M284.256 359.874L173.896 399.872L177.094 408.936L287.454 368.938L284.256 359.874Z" fill="#3F3D56"/>
</g>
<g id="seet">
<path id="Vector_15" d="M300.306 319.655H262.315C259.67 319.655 257.133 318.59 255.263 316.695C253.393 314.799 252.342 312.228 252.342 309.548C252.342 306.867 253.393 304.296 255.263 302.401C257.133 300.505 259.67 299.44 262.315 299.44H300.306C302.951 299.44 305.488 300.505 307.358 302.401C309.228 304.296 310.279 306.867 310.279 309.548C310.279 312.228 309.228 314.799 307.358 316.695C305.488 318.59 302.951 319.655 300.306 319.655V319.655Z" fill="#008000"/>
</g>
<g id="arm">
<path id="Vector_16" d="M485.515 210.88H447.523C444.878 210.88 442.342 209.815 440.471 207.92C438.601 206.024 437.55 203.453 437.55 200.773C437.55 198.092 438.601 195.521 440.471 193.626C442.342 191.73 444.878 190.665 447.523 190.665H485.515C488.16 190.665 490.696 191.73 492.566 193.626C494.437 195.521 495.487 198.092 495.487 200.773C495.487 203.453 494.437 206.024 492.566 207.92C490.696 209.815 488.16 210.88 485.515 210.88Z" fill="#F77ACE"/>
<path id="Vector_17" d="M473.415 223.876C471.598 224.511 469.665 224.735 467.753 224.531C465.841 224.328 463.997 223.702 462.35 222.698C460.702 221.693 459.292 220.335 458.219 218.719C457.146 217.103 456.435 215.268 456.137 213.343L353.413 186.535L370.166 168.72L468.004 197.836C471.228 197.543 474.445 198.459 477.047 200.409C479.649 202.36 481.455 205.21 482.122 208.42C482.789 211.63 482.271 214.976 480.666 217.825C479.061 220.673 476.481 222.826 473.415 223.876H473.415Z" fill="#FFB6B6"/>
</g>
<g id="face">
<path id="Vector_18" d="M344.565 85.0752C359.855 82.4406 370.143 67.7421 367.544 52.2452C364.944 36.7483 350.442 26.3215 335.151 28.9561C319.861 31.5908 309.573 46.2893 312.172 61.7861C314.772 77.283 329.275 87.7099 344.565 85.0752Z" fill="#FFB6B6"/>
</g>
<g id="leg-back">
<path id="Vector_19" d="M307.936 458.279L318.14 466.934L356.667 430.272L341.607 417.499L307.936 458.279Z" fill="#FFB6B6"/>
<path id="Vector_20" d="M338.126 455.352L316.515 440.234L373.415 348.804C332.175 324.51 303.814 294.874 280.673 262.32C272.809 251.334 268.015 238.548 278.986 230.307C279.499 229.921 280.025 229.556 280.565 229.212C293.076 221.311 289.015 233.152 306.164 227.336L321.658 244.088L355.136 277.102L412.238 314.045C423.721 321.475 426.908 337.102 419.355 348.95C418.956 349.575 418.531 350.183 418.081 350.772L338.126 455.352Z" fill="#29238E"/>
<path id="Vector_21" d="M309.228 451.229L327.121 464.652L321.01 472.052L327.848 497.134C328.186 498.373 328.124 499.689 327.672 500.889C327.219 502.09 326.4 503.113 325.334 503.808C324.268 504.504 323.01 504.836 321.744 504.755C320.479 504.675 319.271 504.187 318.299 503.362L298.011 486.154L300.558 475.868L293.149 482.03L285.499 475.542L309.228 451.229Z" fill="#2F2E41"/>
</g>
<g id="leg-front">
<path id="Vector_22" d="M425.865 458.172L438.795 454.94L432.818 401.71L413.734 406.483L425.865 458.172Z" fill="#FFB6B6"/>
<g id="foot-front">
<path id="Vector_23" d="M419.781 442.897L439.959 433.369L443.458 442.342L468.469 448.224C469.704 448.515 470.816 449.198 471.641 450.174C472.466 451.149 472.962 452.367 473.056 453.649C473.15 454.93 472.837 456.209 472.164 457.298C471.49 458.387 470.49 459.229 469.311 459.701L444.708 469.557L437.005 462.379L438.811 471.919L429.535 475.635L419.781 442.897Z" fill="#2F2E41"/>
</g>
<path id="Vector_24" d="M439.519 410.208L411.951 426.964L382.547 321.72C334.849 321.308 290.746 315.895 254.737 299.224C242.537 293.626 237.11 278.819 242.615 266.153C242.873 265.561 243.152 264.98 243.453 264.409C250.462 251.267 264.052 243.549 276.11 229.891L335.923 252.272L331.637 268.597L399.297 272.039C412.903 272.731 423.306 284.71 422.532 298.793C422.491 299.537 422.419 300.278 422.315 301.016L439.519 410.208Z" fill="#29238E"/>
</g>
<g id="body">
<path id="Vector_25" d="M283.483 190.965L279.714 208.877C279.714 208.877 272.857 223.785 274.188 227.768C275.506 231.729 334.863 253.262 334.863 253.262C334.863 253.262 339.948 226.402 348.434 208.284L283.483 190.965Z" fill="#FFB6B6"/>
<path id="Vector_26" d="M322.561 84.8004L340.942 94.5412C341.958 94.952 342.822 95.6736 343.413 96.6055C344.005 97.5374 344.295 98.6331 344.243 99.74L349.031 119.158L365.877 155.297C365.877 155.297 370.267 174.531 361.89 192.692C353.513 210.852 334.973 256.123 334.973 256.123C322.881 285.477 223.627 262.808 249.493 237.833C252.57 234.862 269.868 209.76 276.197 208.318L291.727 118.25C292.51 113.495 294.321 108.974 297.031 105.012C299.741 101.05 303.282 97.745 307.401 95.3336C309.889 93.9081 312.196 93.0641 313.777 93.4948C317.38 94.3458 319.082 86.0761 322.561 84.8004Z" fill="#F77ACE"/>
</g>
<g id="arm_2">
<path id="Vector_27" d="M306.266 110.796C306.266 110.796 290.202 115.83 294.028 134.95C297.854 154.071 346.148 190.143 353.76 196.193C361.372 202.243 424.719 194.088 424.719 194.088L441.083 172.94L379.389 164.098L306.266 110.796Z" fill="#F77ACE"/>
<path id="Vector_28" d="M482.201 204.141C480.53 205.104 478.67 205.683 476.754 205.838C474.838 205.994 472.911 205.721 471.11 205.04C469.309 204.359 467.677 203.287 466.329 201.897C464.982 200.508 463.951 198.836 463.31 197L357.477 189.746L370.721 169.118L472.169 179.549C475.284 178.662 478.613 178.964 481.524 180.398C484.435 181.831 486.726 184.298 487.962 187.329C489.199 190.36 489.295 193.746 488.234 196.845C487.172 199.943 485.025 202.539 482.201 204.141V204.141Z" fill="#FFB6B6"/>
<path id="Vector_29" d="M317.363 99.403C317.363 99.403 300.66 101.364 300.96 120.872C301.26 140.38 342.204 184.818 348.592 192.181C354.98 199.544 418.728 203.306 418.728 203.306L438.642 185.559L379.596 165.397L317.363 99.403Z" fill="#F77ACE"/>
</g>
</g>
<g id="hair">
<path id="Vector_30" d="M366.5 55.9544C362.003 58.5828 356.911 54.7733 352.976 50.9849L354.384 52.398C347.557 60.4421 344.432 71.9337 342.954 83.2264C341.475 94.5073 341.399 106.026 339.51 117.232C337.62 128.426 333.596 139.699 325.956 146.635C315.721 155.924 301.49 155.509 288.808 152.855C288.639 152.816 288.481 152.787 288.312 152.749C291.617 141.04 292.894 128.661 292.068 116.353C288.782 128.737 283.103 140.04 275.484 149.36C267.068 146.723 258.846 143.281 250.898 139.07C245.755 136.337 240.211 132.583 238.734 126.128C237.254 119.723 240.503 112.947 244.89 108.837C249.277 104.728 254.686 102.546 259.699 99.5953C264.703 96.6584 269.645 92.4979 271.605 86.2839C276.126 71.9893 262.753 55.8128 267.789 41.7539C270.272 34.8405 276.468 31.0208 282.297 28.0631C291.196 23.5597 300.341 19.7751 309.671 16.7353C317.86 14.0651 326.418 11.9633 334.798 13.5459C343.178 15.1285 351.426 21.0652 354.519 30.4542C359.56 32.4073 364.913 34.6126 368.181 39.5902C371.447 44.5559 371.262 53.1757 366.5 55.9544Z" fill="#42403F"/>
</g>
<g id="sun and clouds">
<g id="sun">
<path id="Vector_31" d="M622.872 206.652C642.455 206.652 658.33 191.553 658.33 172.927C658.33 154.301 642.455 139.202 622.872 139.202C603.289 139.202 587.414 154.301 587.414 172.927C587.414 191.553 603.289 206.652 622.872 206.652Z" fill="#FDC065"/>
</g>
<g id="cloud-right">
<path id="Vector_32" d="M702.235 156.96C701.232 153.84 699.293 151.067 696.655 148.983C694.018 146.898 690.797 145.591 687.389 145.225C687.312 145.214 687.239 145.228 687.162 145.223C687.063 145.194 686.962 145.172 686.86 145.157C670.644 143.164 651.926 150.54 645.168 165.162C643.519 163.023 641.348 161.299 638.841 160.137C636.335 158.975 633.569 158.411 630.782 158.494C627.189 158.722 623.756 159.997 620.952 162.147C618.148 164.296 616.109 167.216 615.112 170.507C615.005 170.91 615.037 171.335 615.202 171.719C615.366 172.104 615.655 172.429 616.027 172.647C617.098 173.51 618.367 174.123 619.732 174.435C622.676 175.029 625.632 175.572 628.598 176.066C634.385 177.029 640.202 177.808 646.05 178.402C657.92 179.612 669.864 180.042 681.796 179.688C685.77 179.57 689.603 179.444 693.244 177.776C695.893 176.532 698.156 174.653 699.811 172.325C701.37 170.088 702.395 167.553 702.814 164.898C703.233 162.243 703.035 159.534 702.235 156.96V156.96Z" fill="#F0F0F0"/>
</g>
<g id="cloud-left">
<path id="Vector_33" d="M628.538 201.926C627.536 198.806 625.596 196.034 622.959 193.949C620.321 191.864 617.1 190.558 613.693 190.191C613.616 190.181 613.542 190.194 613.466 190.19C613.367 190.161 613.266 190.139 613.163 190.123C596.948 188.13 578.23 195.506 571.472 210.128C569.823 207.989 567.651 206.265 565.145 205.103C562.638 203.941 559.872 203.378 557.085 203.46C553.492 203.688 550.06 204.963 547.256 207.113C544.452 209.263 542.412 212.182 541.415 215.474C541.309 215.876 541.341 216.301 541.505 216.686C541.67 217.07 541.959 217.395 542.331 217.613C543.402 218.476 544.67 219.089 546.035 219.402C548.98 219.995 551.935 220.539 554.901 221.032C560.688 221.996 566.506 222.774 572.353 223.369C584.223 224.579 596.167 225.008 608.1 224.654C612.074 224.536 615.906 224.411 619.547 222.742C622.196 221.498 624.46 219.619 626.115 217.292C627.674 215.054 628.699 212.519 629.118 209.864C629.536 207.21 629.339 204.5 628.538 201.926V201.926Z" fill="#F0F0F0"/>
</g>
</g>
</g>
<defs>
<filter id="filter0_d_1_2" x="524.229" y="426.542" width="156.32" height="138.962" filterUnits="userSpaceOnUse" color-interpolation-filters="sRGB">
<feFlood flood-opacity="0" result="BackgroundImageFix"/>
<feColorMatrix in="SourceAlpha" type="matrix" values="0 0 0 0 0 0 0 0 0 0 0 0 0 0 0 0 0 0 127 0" result="hardAlpha"/>
<feOffset dy="4"/>
<feGaussianBlur stdDeviation="2"/>
<feComposite in2="hardAlpha" operator="out"/>
<feColorMatrix type="matrix" values="0 0 0 0 0 0 0 0 0 0 0 0 0 0 0 0 0 0 0.25 0"/>
<feBlend mode="normal" in2="BackgroundImageFix" result="effect1_dropShadow_1_2"/>
<feBlend mode="normal" in="SourceGraphic" in2="effect1_dropShadow_1_2" result="shape"/>
</filter>
<filter id="filter1_d_1_2" x="501.259" y="487.052" width="204.611" height="9.97676" filterUnits="userSpaceOnUse" color-interpolation-filters="sRGB">
<feFlood flood-opacity="0" result="BackgroundImageFix"/>
<feColorMatrix in="SourceAlpha" type="matrix" values="0 0 0 0 0 0 0 0 0 0 0 0 0 0 0 0 0 0 127 0" result="hardAlpha"/>
<feOffset dy="4"/>
<feGaussianBlur stdDeviation="2"/>
<feComposite in2="hardAlpha" operator="out"/>
<feColorMatrix type="matrix" values="0 0 0 0 0 0 0 0 0 0 0 0 0 0 0 0 0 0 0.25 0"/>
<feBlend mode="normal" in2="BackgroundImageFix" result="effect1_dropShadow_1_2"/>
<feBlend mode="normal" in="SourceGraphic" in2="effect1_dropShadow_1_2" result="shape"/>
</filter>
<filter id="filter2_d_1_2" x="528.161" y="424.034" width="157.761" height="137.754" filterUnits="userSpaceOnUse" color-interpolation-filters="sRGB">
<feFlood flood-opacity="0" result="BackgroundImageFix"/>
<feColorMatrix in="SourceAlpha" type="matrix" values="0 0 0 0 0 0 0 0 0 0 0 0 0 0 0 0 0 0 127 0" result="hardAlpha"/>
<feOffset dy="4"/>
<feGaussianBlur stdDeviation="2"/>
<feComposite in2="hardAlpha" operator="out"/>
<feColorMatrix type="matrix" values="0 0 0 0 0 0 0 0 0 0 0 0 0 0 0 0 0 0 0.25 0"/>
<feBlend mode="normal" in2="BackgroundImageFix" result="effect1_dropShadow_1_2"/>
<feBlend mode="normal" in="SourceGraphic" in2="effect1_dropShadow_1_2" result="shape"/>
</filter>
<filter id="filter3_d_1_2" x="601.889" y="393.231" width="9" height="210.148" filterUnits="userSpaceOnUse" color-interpolation-filters="sRGB">
<feFlood flood-opacity="0" result="BackgroundImageFix"/>
<feColorMatrix in="SourceAlpha" type="matrix" values="0 0 0 0 0 0 0 0 0 0 0 0 0 0 0 0 0 0 127 0" result="hardAlpha"/>
<feOffset dy="4"/>
<feGaussianBlur stdDeviation="2"/>
<feComposite in2="hardAlpha" operator="out"/>
<feColorMatrix type="matrix" values="0 0 0 0 0 0 0 0 0 0 0 0 0 0 0 0 0 0 0.25 0"/>
<feBlend mode="normal" in2="BackgroundImageFix" result="effect1_dropShadow_1_2"/>
<feBlend mode="normal" in="SourceGraphic" in2="effect1_dropShadow_1_2" result="shape"/>
</filter>
<filter id="filter4_d_1_2" x="84.2901" y="438.094" width="149.859" height="133.299" filterUnits="userSpaceOnUse" color-interpolation-filters="sRGB">
<feFlood flood-opacity="0" result="BackgroundImageFix"/>
<feColorMatrix in="SourceAlpha" type="matrix" values="0 0 0 0 0 0 0 0 0 0 0 0 0 0 0 0 0 0 127 0" result="hardAlpha"/>
<feOffset dy="4"/>
<feGaussianBlur stdDeviation="2"/>
<feComposite in2="hardAlpha" operator="out"/>
<feColorMatrix type="matrix" values="0 0 0 0 0 0 0 0 0 0 0 0 0 0 0 0 0 0 0.25 0"/>
<feBlend mode="normal" in2="BackgroundImageFix" result="effect1_dropShadow_1_2"/>
<feBlend mode="normal" in="SourceGraphic" in2="effect1_dropShadow_1_2" result="shape"/>
</filter>
<filter id="filter5_d_1_2" x="59.6108" y="499.099" width="197.007" height="9.00001" filterUnits="userSpaceOnUse" color-interpolation-filters="sRGB">
<feFlood flood-opacity="0" result="BackgroundImageFix"/>
<feColorMatrix in="SourceAlpha" type="matrix" values="0 0 0 0 0 0 0 0 0 0 0 0 0 0 0 0 0 0 127 0" result="hardAlpha"/>
<feOffset dy="4"/>
<feGaussianBlur stdDeviation="2"/>
<feComposite in2="hardAlpha" operator="out"/>
<feColorMatrix type="matrix" values="0 0 0 0 0 0 0 0 0 0 0 0 0 0 0 0 0 0 0.25 0"/>
<feBlend mode="normal" in2="BackgroundImageFix" result="effect1_dropShadow_1_2"/>
<feBlend mode="normal" in="SourceGraphic" in2="effect1_dropShadow_1_2" result="shape"/>
</filter>
<filter id="filter6_d_1_2" x="83.6608" y="436.548" width="152.062" height="132.941" filterUnits="userSpaceOnUse" color-interpolation-filters="sRGB">
<feFlood flood-opacity="0" result="BackgroundImageFix"/>
<feColorMatrix in="SourceAlpha" type="matrix" values="0 0 0 0 0 0 0 0 0 0 0 0 0 0 0 0 0 0 127 0" result="hardAlpha"/>
<feOffset dy="4"/>
<feGaussianBlur stdDeviation="2"/>
<feComposite in2="hardAlpha" operator="out"/>
<feColorMatrix type="matrix" values="0 0 0 0 0 0 0 0 0 0 0 0 0 0 0 0 0 0 0.25 0"/>
<feBlend mode="normal" in2="BackgroundImageFix" result="effect1_dropShadow_1_2"/>
<feBlend mode="normal" in="SourceGraphic" in2="effect1_dropShadow_1_2" result="shape"/>
</filter>
<filter id="filter7_d_1_2" x="156.439" y="405.744" width="9.00006" height="197.634" filterUnits="userSpaceOnUse" color-interpolation-filters="sRGB">
<feFlood flood-opacity="0" result="BackgroundImageFix"/>
<feColorMatrix in="SourceAlpha" type="matrix" values="0 0 0 0 0 0 0 0 0 0 0 0 0 0 0 0 0 0 127 0" result="hardAlpha"/>
<feOffset dy="4"/>
<feGaussianBlur stdDeviation="2"/>
<feComposite in2="hardAlpha" operator="out"/>
<feColorMatrix type="matrix" values="0 0 0 0 0 0 0 0 0 0 0 0 0 0 0 0 0 0 0.25 0"/>
<feBlend mode="normal" in2="BackgroundImageFix" result="effect1_dropShadow_1_2"/>
<feBlend mode="normal" in="SourceGraphic" in2="effect1_dropShadow_1_2" result="shape"/>
</filter>
<clipPath id="clip0_1_2">
<rect width="794.67" height="615.311" fill="white"/>
</clipPath>
</defs>
</svg>
