<svg width="693" height="521" viewBox="0 0 693 521" fill="none" xmlns="http://www.w3.org/2000/svg">
<g id="undraw_running_wild_re_fq9r 1" clip-path="url(#clip0_1_2)">
<path id="Vector" d="M0 518.718C0 519.59 0.69976 520.289 1.57114 520.289H691.109C691.981 520.289 692.68 519.59 692.68 518.718C692.68 517.847 691.981 517.147 691.109 517.147H1.57114C0.69975 517.147 0 517.847 0 518.718Z" fill="#3F3D56"/>
<g id="running woman">
<g id="Group">
<g id="feet">
<path id="Vector_2" d="M304.293 474.426H334.718L338.293 490.426C338.293 490.426 361.293 517.426 335.293 517.426C309.293 517.426 265.293 525.426 265.293 515.426C265.293 505.426 297.293 499.426 297.293 499.426L304.293 474.426V474.426V474.426Z" fill="#2F2E41"/>
<path id="Vector_3" d="M495.518 398.068L494.945 367.648L510.875 363.772C510.875 363.772 537.437 340.268 537.926 366.263C538.416 392.259 547.243 436.1 537.245 436.289C527.247 436.477 520.645 404.596 520.645 404.596L495.518 398.068V398.068V398.068Z" fill="#2F2E41"/>
</g>
<path id="Vector_4" d="M405.212 58.9807L411.419 81.945L383.489 96.2201L372.938 65.8079L405.212 58.9807Z" fill="#FFB6B6"/>
<path id="Vector_5" d="M386.956 5.87451C405.013 5.87451 419.652 20.5131 419.652 38.5707C419.652 56.6283 405.013 71.2669 386.956 71.2669C368.898 71.2669 354.259 56.6283 354.259 38.5707C354.259 20.5131 368.898 5.87451 386.956 5.87451V5.87451Z" fill="#FFB6B6"/>
<path id="uuid-133c54c8-d128-4e99-98c7-7284e3ebd37e-352" d="M424.403 205.065C426.269 201.883 428.871 199.195 431.99 197.225L449.836 163.049L465.85 172.016L446.023 205.718C445.723 209.393 444.548 212.944 442.596 216.072C437.816 223.97 429.871 227.904 424.847 224.864C419.823 221.823 419.623 212.959 424.403 205.065H424.403V205.065V205.065Z" fill="#FFB6B6"/>
<g id="legs">
<path id="Vector_6" d="M365.087 200.314L412.953 200C412.953 200 434.72 240 410.72 281L406.72 365L506.72 360V396.287C506.72 396.287 376.72 414 371.72 404C366.72 394 356.72 331.572 356.72 331.572L346.622 349.341L336.72 478H305.803L299 339L358.72 228L365.087 200.314Z" fill="#2F2E41"/>
</g>
<path id="Vector_7" d="M376.684 77.7625L413.317 75.3203L426.749 116.837L413.317 204.756L363.252 213.304L352.262 121.722L376.684 77.7625Z" fill="#E98EF9"/>
<g id="arms">
<path id="Vector_8" d="M414.389 81.4258L410.875 121.722L443.844 141.259L431.293 186.426L456.055 199.872C456.055 199.872 481.698 152.249 476.814 136.375C471.93 120.501 414.389 81.4258 414.389 81.4258H414.389V81.4258Z" fill="#DBB7E1"/>
<path id="Vector_9" opacity="0.1" d="M405.327 117.213C405.327 117.213 405.719 188.646 389.506 190.536C373.293 192.426 362.015 187.89 362.015 187.89" fill="black"/>
<path id="uuid-7de41d00-2d2a-4a7c-931f-82c29e7265eb-353" d="M299.11 150.778C302.788 151.064 306.344 152.228 309.48 154.171L348.019 155.265L346.962 173.588L307.982 170.504C304.546 171.844 300.839 172.34 297.172 171.953C287.98 171.111 280.965 165.688 281.501 159.839C282.037 153.991 289.921 149.934 299.11 150.778V150.778L299.11 150.778V150.778Z" fill="#FFB6B6"/>
<path id="Vector_10" d="M319.111 173.474L318.704 173.315L323.899 151.928L357.925 151.751L364.285 99.0527C365.531 88.7187 374.321 80.9258 384.73 80.9258C390.577 80.9258 396.168 83.4219 400.07 87.7734C403.968 92.1201 405.84 97.9424 405.205 103.746C401.317 139.311 394.083 182.398 381.697 185.702C379.342 186.33 376.584 186.604 373.561 186.604C353.144 186.604 320.681 174.084 319.111 173.474V173.474V173.474Z" fill="#DBB7E1"/>
</g>
<path id="Vector_11" d="M367.962 21.6029C365.617 25.6584 363.178 29.8212 359.468 32.6822C355.758 35.5432 350.418 36.815 346.333 34.5216C342.318 32.268 340.59 27.0347 341.579 22.5381C342.568 18.0416 345.821 14.3046 349.65 11.7476C353.478 9.19061 357.882 7.65646 362.232 6.14863C368.881 3.84424 375.579 1.52752 382.543 0.527247C401.542 -2.20131 421.723 5.82208 433.661 20.8505C439.298 27.9463 443.094 36.2952 446.833 44.5502C449.89 51.2981 453.014 58.4052 452.474 65.7933C452.077 71.2098 449.825 77.1432 452.741 81.7248C454.21 84.0332 456.716 85.4319 458.749 87.263C460.782 89.0942 462.451 91.9328 461.447 94.4783C460.42 97.0831 457.182 98.0224 455.455 100.226C452.494 104.003 455.017 109.529 458.001 113.288C460.985 117.047 464.648 121.262 463.704 125.967C463.023 129.362 459.94 131.89 456.606 132.823C453.272 133.756 449.717 133.361 446.312 132.732C429.672 129.659 414.117 120.992 402.746 108.461C391.376 95.9297 384.258 79.6071 382.811 62.748C382.175 55.3247 382.599 47.7864 381.136 40.4807C379.674 33.1751 375.886 25.8207 369.222 22.4876" fill="#B89188"/>
</g>
</g>
</g>
<defs>
<clipPath id="clip0_1_2">
<rect width="692.68" height="520.455" fill="white"/>
</clipPath>
</defs>
</svg>
